<mxfile host="app.diagrams.net" modified="2022-10-24T03:32:23.005Z" agent="5.0 (Macintosh; Intel Mac OS X 10_15_7) AppleWebKit/537.36 (KHTML, like Gecko) Chrome/106.0.0.0 Safari/537.36" etag="mksrLH_7VtBDS3K1Xei0" version="20.4.0" type="github">
  <diagram id="sV-Qj5nfXAAdDPfbrngv" name="第 1 页">
    <mxGraphModel dx="658" dy="339" grid="1" gridSize="10" guides="1" tooltips="1" connect="1" arrows="1" fold="1" page="1" pageScale="1" pageWidth="827" pageHeight="1169" math="0" shadow="0">
      <root>
        <mxCell id="0" />
        <mxCell id="1" parent="0" />
        <mxCell id="Lbsl9DkZRLSIf5Nhq8Jv-3" value="构造消息体&lt;br&gt;msgIndex = 1，&lt;br&gt;消息消费时间，&lt;br&gt;消息延迟时间，&lt;br&gt;计算信息实体" style="whiteSpace=wrap;html=1;" vertex="1" parent="1">
          <mxGeometry x="110" y="520" width="170" height="120" as="geometry" />
        </mxCell>
        <mxCell id="Lbsl9DkZRLSIf5Nhq8Jv-4" value="&lt;span style=&quot;color: rgb(0, 0, 0); font-family: Helvetica; font-size: 12px; font-style: normal; font-variant-ligatures: normal; font-variant-caps: normal; font-weight: 400; letter-spacing: normal; orphans: 2; text-align: center; text-indent: 0px; text-transform: none; widows: 2; word-spacing: 0px; -webkit-text-stroke-width: 0px; background-color: rgb(248, 249, 250); text-decoration-thickness: initial; text-decoration-style: initial; text-decoration-color: initial; float: none; display: inline !important;&quot;&gt;定时拉取&lt;/span&gt;" style="text;whiteSpace=wrap;html=1;" vertex="1" parent="1">
          <mxGeometry x="130" y="10" width="180" height="50" as="geometry" />
        </mxCell>
        <mxCell id="Lbsl9DkZRLSIf5Nhq8Jv-5" value="发计算消息" style="whiteSpace=wrap;html=1;" vertex="1" parent="1">
          <mxGeometry x="135" y="690" width="120" height="60" as="geometry" />
        </mxCell>
        <mxCell id="Lbsl9DkZRLSIf5Nhq8Jv-7" value="根据创单时间和当前时间，推算首次消息消费时间" style="whiteSpace=wrap;html=1;" vertex="1" parent="1">
          <mxGeometry x="110" y="275" width="170" height="90" as="geometry" />
        </mxCell>
        <mxCell id="Lbsl9DkZRLSIf5Nhq8Jv-8" value="根据当前时间和消息消费时间，&lt;br&gt;推算消息延迟时间" style="whiteSpace=wrap;html=1;" vertex="1" parent="1">
          <mxGeometry x="110" y="400" width="170" height="79" as="geometry" />
        </mxCell>
        <mxCell id="Lbsl9DkZRLSIf5Nhq8Jv-9" value="构建计算信息实体" style="whiteSpace=wrap;html=1;" vertex="1" parent="1">
          <mxGeometry x="110" y="180" width="170" height="70" as="geometry" />
        </mxCell>
        <mxCell id="Lbsl9DkZRLSIf5Nhq8Jv-10" value="消费计算消息" style="text;html=1;align=center;verticalAlign=middle;resizable=0;points=[];autosize=1;strokeColor=none;fillColor=none;" vertex="1" parent="1">
          <mxGeometry x="500" y="90" width="130" height="40" as="geometry" />
        </mxCell>
        <mxCell id="Lbsl9DkZRLSIf5Nhq8Jv-12" value="" style="whiteSpace=wrap;html=1;" vertex="1" parent="1">
          <mxGeometry x="500" y="180" width="170" height="70" as="geometry" />
        </mxCell>
        <mxCell id="Lbsl9DkZRLSIf5Nhq8Jv-13" value="10个创建时间相近的单/批" style="whiteSpace=wrap;html=1;" vertex="1" parent="1">
          <mxGeometry x="110" y="60" width="170" height="70" as="geometry" />
        </mxCell>
      </root>
    </mxGraphModel>
  </diagram>
</mxfile>
